<?xml version="1.0" encoding="UTF-8"?>
<svg id="Layer_1" xmlns="http://www.w3.org/2000/svg" viewBox="0 0 553.5 164.29">
  <defs>
    <style>
      .cls-1 {
        font-family: Moderustic-Regular, Moderustic;
        font-size: 37.44px;
        font-variation-settings: 'wght' 400;
      }

      .cls-1, .cls-2 {
        fill: #36454F	;
      }

      .cls-3 {
        letter-spacing: 0em;
      }

      .cls-4 {
        letter-spacing: -.05em;
      }

      .cls-5 {
        letter-spacing: .02em;
      }

      .cls-6 {
        letter-spacing: .02em;
      }
    </style>
  </defs>
  <g>
    <text class="cls-1" transform="translate(44.67 149.28)"><tspan x="0" y="0">GR</tspan><tspan class="cls-5" x="53.32" y="0">A</tspan><tspan x="78.59" y="0">N</tspan><tspan class="cls-6" x="106" y="0">A</tspan><tspan class="cls-4" x="131.28" y="0">D</tspan><tspan class="cls-3" x="156.44" y="0">A FRUIT SUPPLIES</tspan></text>
    <g>
      <path class="cls-2" d="M80.53,94.81c-5.68,2.04-16.89,5.39-30.15,5.39-14.85,0-27.09-3.79-36.7-12.96C5.24,79.08,0,65.97,0,50.68.15,21.41,20.24,0,53.15,0c11.36,0,20.24,2.48,24.47,4.51l-3.06,10.34c-5.24-2.33-11.8-4.22-21.7-4.22-23.88,0-39.47,14.85-39.47,39.47s15,39.61,37.86,39.61c8.3,0,13.98-1.17,16.89-2.62v-29.27h-19.95v-10.19h32.33v47.19Z"/>
      <path class="cls-2" d="M99.89,2.33c6.41-1.31,15.58-2.04,24.32-2.04,13.54,0,22.28,2.48,28.4,8.01,4.95,4.37,7.72,11.07,7.72,18.64,0,12.96-8.16,21.55-18.5,25.05v.44c7.57,2.62,12.09,9.61,14.42,19.81,3.2,13.69,5.53,23.15,7.57,26.94h-13.11c-1.6-2.77-3.79-11.21-6.55-23.45-2.91-13.54-8.15-18.64-19.66-19.08h-11.94v42.52h-12.67V2.33ZM112.56,47.04h12.96c13.54,0,22.14-7.43,22.14-18.64,0-12.67-9.18-18.2-22.57-18.35-6.12,0-10.49.58-12.52,1.16v35.83Z"/>
      <path class="cls-2" d="M246.72,99.17V1.02h13.84l31.46,49.66c7.28,11.51,12.96,21.84,17.62,31.89l.29-.15c-1.17-13.11-1.46-25.05-1.46-40.34V1.02h11.94v98.15h-12.81l-31.17-49.81c-6.84-10.92-13.4-22.14-18.35-32.77l-.44.15c.73,12.38,1.02,24.17,1.02,40.48v41.94h-11.94Z"/>
      <path class="cls-2" d="M404.98,2.55c7.72-1.17,16.89-2.04,26.94-2.04,18.2,0,31.17,4.22,39.76,12.23,8.74,8.01,13.83,19.37,13.83,35.24s-4.95,29.13-14.12,38.16c-9.18,9.17-24.32,14.12-43.4,14.12-9.03,0-16.6-.44-23.01-1.16V2.55ZM417.65,89.34c3.2.58,7.86.73,12.82.73,27.09,0,41.8-15.15,41.8-41.65.15-23.16-12.96-37.86-39.76-37.86-6.55,0-11.5.58-14.85,1.31v77.48Z"/>
    </g>
  </g>
  <path class="cls-2" d="M194.89,68.3l-10.19,30.87h-13.11L204.94,1.02l-26.81.58,32.74,97.65,28.98-.15-10.15-30.8h-34.81ZM227.07,58.4l-9.61-28.25c-2.19-6.41-3.64-12.23-5.1-17.91h-.29c-1.46,5.83-3.06,11.8-4.95,17.77l-9.61,28.4h29.56Z"/>
  <path class="cls-2" d="M355.3,68.55l-10.19,30.87h-13.11L365.35,1.27l-26.81.58,32.74,97.65,28.98-.15-10.15-30.8h-34.81ZM387.49,58.65l-9.61-28.25c-2.19-6.41-3.64-12.23-5.1-17.91h-.29c-1.46,5.83-3.06,11.8-4.95,17.77l-9.61,28.4h29.56Z"/>
  <path class="cls-2" d="M508.55,68.55l-10.19,30.87h-13.11L518.6,1.27l-26.81.58,32.74,97.65,28.98-.15-10.15-30.8h-34.81ZM540.73,58.65l-9.61-28.25c-2.19-6.41-3.64-12.23-5.1-17.91h-.29c-1.46,5.83-3.06,11.8-4.95,17.77l-9.61,28.4h29.56Z"/>
</svg>